# xmcd CD database file
#
# Track frame offsets:
#	150
#	22400
#	57795
#
# Disc length: 1211 seconds
#
# Revision: 0
# Processed by: cddbd v1.5.2PL0 Copyright (c) Steve Scherf et al.
# Submitted via: CDex 1.70beta2
#
DISCID=2304b903
DTITLE=Mind Medicine JAZZ Project - Face To Face
DYEAR=1989
DGENRE=Jazz
TTITLE0=Face To Face
TTITLE1=Night and Day
TTITLE2=Here's To You, Diz
EXTD=YEAR: 1989
EXTT0=
EXTT1=
EXTT2=
PLAYORDER=
